<svg width="500" height="400" viewBox="0 0 500 400" fill="none" xmlns="http://www.w3.org/2000/svg">
<rect x="7.5" y="7.5" width="485" height="385" rx="37.5" fill="white" stroke="#000CF7" stroke-width="15"/>
<rect x="24" y="23" width="452" height="60" rx="30" fill="#000CF7"/>
<rect x="43" y="42" width="40" height="23" rx="11.5" fill="white"/>
<rect x="172" y="42" width="40" height="23" rx="11.5" fill="white"/>
<rect x="107" y="42" width="41" height="23" rx="11.5" fill="white"/>
<rect x="236" y="42" width="40" height="23" rx="11.5" fill="white"/>
<rect x="365" y="42" width="40" height="23" rx="11.5" fill="white"/>
<rect x="421" y="42" width="40" height="23" rx="11.5" fill="white"/>
<rect x="300" y="42" width="41" height="23" rx="11.5" fill="white"/>
<path d="M86.952 349.048H74.376L72.36 355H63.768L75.96 321.304H85.464L97.656 355H88.968L86.952 349.048ZM84.84 342.712L80.664 330.376L76.536 342.712H84.84ZM131.847 321.304V327.88H122.919V355H114.711V327.88H105.783V321.304H131.847ZM166.446 321.304V327.88H157.518V355H149.31V327.88H140.382V321.304H166.446ZM185.013 327.88V334.696H196.005V341.032H185.013V348.424H197.445V355H176.805V321.304H197.445V327.88H185.013ZM239.158 355H230.95L217.222 334.216V355H209.014V321.304H217.222L230.95 342.184V321.304H239.158V355ZM263.972 321.304C267.524 321.304 270.628 322.008 273.284 323.416C275.94 324.824 277.988 326.808 279.428 329.368C280.9 331.896 281.636 334.824 281.636 338.152C281.636 341.448 280.9 344.376 279.428 346.936C277.988 349.496 275.924 351.48 273.236 352.888C270.58 354.296 267.492 355 263.972 355H251.348V321.304H263.972ZM263.444 347.896C266.548 347.896 268.964 347.048 270.692 345.352C272.42 343.656 273.284 341.256 273.284 338.152C273.284 335.048 272.42 332.632 270.692 330.904C268.964 329.176 266.548 328.312 263.444 328.312H259.556V347.896H263.444ZM313.439 349.048H300.863L298.847 355H290.255L302.447 321.304H311.951L324.143 355H315.455L313.439 349.048ZM311.327 342.712L307.151 330.376L303.023 342.712H311.327ZM364.237 355H356.029L342.301 334.216V355H334.093V321.304H342.301L356.029 342.184V321.304H364.237V355ZM375.035 338.104C375.035 334.776 375.755 331.816 377.195 329.224C378.635 326.6 380.635 324.568 383.195 323.128C385.787 321.656 388.715 320.92 391.979 320.92C395.979 320.92 399.403 321.976 402.251 324.088C405.099 326.2 407.003 329.08 407.963 332.728H398.939C398.267 331.32 397.307 330.248 396.059 329.512C394.843 328.776 393.451 328.408 391.883 328.408C389.355 328.408 387.307 329.288 385.739 331.048C384.171 332.808 383.387 335.16 383.387 338.104C383.387 341.048 384.171 343.4 385.739 345.16C387.307 346.92 389.355 347.8 391.883 347.8C393.451 347.8 394.843 347.432 396.059 346.696C397.307 345.96 398.267 344.888 398.939 343.48H407.963C407.003 347.128 405.099 350.008 402.251 352.12C399.403 354.2 395.979 355.24 391.979 355.24C388.715 355.24 385.787 354.52 383.195 353.08C380.635 351.608 378.635 349.576 377.195 346.984C375.755 344.392 375.035 341.432 375.035 338.104ZM427.438 327.88V334.696H438.43V341.032H427.438V348.424H439.87V355H419.23V321.304H439.87V327.88H427.438Z" fill="#0805CB"/>
<circle cx="107" cy="161" r="30" fill="#1965E0"/>
<ellipse cx="110.5" cy="230" rx="54.5" ry="30" fill="#1965E0"/>
<rect x="234" y="119" width="214" height="162" rx="15" fill="#9FC8E3"/>
<path d="M328.625 262.49C328.995 262.49 329.318 262.563 329.595 262.71C329.872 262.857 330.085 263.063 330.235 263.33C330.388 263.593 330.465 263.898 330.465 264.245C330.465 264.588 330.388 264.893 330.235 265.16C330.085 265.427 329.87 265.633 329.59 265.78C329.313 265.927 328.992 266 328.625 266H327.31V262.49H328.625ZM328.57 265.26C328.893 265.26 329.145 265.172 329.325 264.995C329.505 264.818 329.595 264.568 329.595 264.245C329.595 263.922 329.505 263.67 329.325 263.49C329.145 263.31 328.893 263.22 328.57 263.22H328.165V265.26H328.57ZM333.573 264.56C333.573 264.64 333.568 264.723 333.558 264.81H331.623C331.636 264.983 331.691 265.117 331.788 265.21C331.888 265.3 332.009 265.345 332.153 265.345C332.366 265.345 332.514 265.255 332.598 265.075H333.508C333.461 265.258 333.376 265.423 333.253 265.57C333.133 265.717 332.981 265.832 332.798 265.915C332.614 265.998 332.409 266.04 332.183 266.04C331.909 266.04 331.666 265.982 331.453 265.865C331.239 265.748 331.073 265.582 330.953 265.365C330.833 265.148 330.773 264.895 330.773 264.605C330.773 264.315 330.831 264.062 330.948 263.845C331.068 263.628 331.234 263.462 331.448 263.345C331.661 263.228 331.906 263.17 332.183 263.17C332.453 263.17 332.693 263.227 332.903 263.34C333.113 263.453 333.276 263.615 333.393 263.825C333.513 264.035 333.573 264.28 333.573 264.56ZM332.698 264.335C332.698 264.188 332.648 264.072 332.548 263.985C332.448 263.898 332.323 263.855 332.173 263.855C332.029 263.855 331.908 263.897 331.808 263.98C331.711 264.063 331.651 264.182 331.628 264.335H332.698ZM335.279 265.2L335.884 263.21H336.794L335.804 266H334.749L333.759 263.21H334.674L335.279 265.2ZM339.784 264.56C339.784 264.64 339.779 264.723 339.769 264.81H337.834C337.847 264.983 337.902 265.117 337.999 265.21C338.099 265.3 338.22 265.345 338.364 265.345C338.577 265.345 338.725 265.255 338.809 265.075H339.719C339.672 265.258 339.587 265.423 339.464 265.57C339.344 265.717 339.192 265.832 339.009 265.915C338.825 265.998 338.62 266.04 338.394 266.04C338.12 266.04 337.877 265.982 337.664 265.865C337.45 265.748 337.284 265.582 337.164 265.365C337.044 265.148 336.984 264.895 336.984 264.605C336.984 264.315 337.042 264.062 337.159 263.845C337.279 263.628 337.445 263.462 337.659 263.345C337.872 263.228 338.117 263.17 338.394 263.17C338.664 263.17 338.904 263.227 339.114 263.34C339.324 263.453 339.487 263.615 339.604 263.825C339.724 264.035 339.784 264.28 339.784 264.56ZM338.909 264.335C338.909 264.188 338.859 264.072 338.759 263.985C338.659 263.898 338.534 263.855 338.384 263.855C338.24 263.855 338.119 263.897 338.019 263.98C337.922 264.063 337.862 264.182 337.839 264.335H338.909ZM341.09 262.3V266H340.235V262.3H341.09ZM342.979 266.04C342.706 266.04 342.459 265.982 342.239 265.865C342.023 265.748 341.851 265.582 341.724 265.365C341.601 265.148 341.539 264.895 341.539 264.605C341.539 264.318 341.603 264.067 341.729 263.85C341.856 263.63 342.029 263.462 342.249 263.345C342.469 263.228 342.716 263.17 342.989 263.17C343.263 263.17 343.509 263.228 343.729 263.345C343.949 263.462 344.123 263.63 344.249 263.85C344.376 264.067 344.439 264.318 344.439 264.605C344.439 264.892 344.374 265.145 344.244 265.365C344.118 265.582 343.943 265.748 343.719 265.865C343.499 265.982 343.253 266.04 342.979 266.04ZM342.979 265.3C343.143 265.3 343.281 265.24 343.394 265.12C343.511 265 343.569 264.828 343.569 264.605C343.569 264.382 343.513 264.21 343.399 264.09C343.289 263.97 343.153 263.91 342.989 263.91C342.823 263.91 342.684 263.97 342.574 264.09C342.464 264.207 342.409 264.378 342.409 264.605C342.409 264.828 342.463 265 342.569 265.12C342.679 265.24 342.816 265.3 342.979 265.3ZM345.748 263.605C345.831 263.475 345.946 263.37 346.093 263.29C346.24 263.21 346.411 263.17 346.608 263.17C346.838 263.17 347.046 263.228 347.233 263.345C347.42 263.462 347.566 263.628 347.673 263.845C347.783 264.062 347.838 264.313 347.838 264.6C347.838 264.887 347.783 265.14 347.673 265.36C347.566 265.577 347.42 265.745 347.233 265.865C347.046 265.982 346.838 266.04 346.608 266.04C346.415 266.04 346.243 266 346.093 265.92C345.946 265.84 345.831 265.737 345.748 265.61V267.33H344.893V263.21H345.748V263.605ZM346.968 264.6C346.968 264.387 346.908 264.22 346.788 264.1C346.671 263.977 346.526 263.915 346.353 263.915C346.183 263.915 346.038 263.977 345.918 264.1C345.801 264.223 345.743 264.392 345.743 264.605C345.743 264.818 345.801 264.987 345.918 265.11C346.038 265.233 346.183 265.295 346.353 265.295C346.523 265.295 346.668 265.233 346.788 265.11C346.908 264.983 346.968 264.813 346.968 264.6ZM350.917 264.56C350.917 264.64 350.912 264.723 350.902 264.81H348.967C348.98 264.983 349.035 265.117 349.132 265.21C349.232 265.3 349.353 265.345 349.497 265.345C349.71 265.345 349.858 265.255 349.942 265.075H350.852C350.805 265.258 350.72 265.423 350.597 265.57C350.477 265.717 350.325 265.832 350.142 265.915C349.958 265.998 349.753 266.04 349.527 266.04C349.253 266.04 349.01 265.982 348.797 265.865C348.583 265.748 348.417 265.582 348.297 265.365C348.177 265.148 348.117 264.895 348.117 264.605C348.117 264.315 348.175 264.062 348.292 263.845C348.412 263.628 348.578 263.462 348.792 263.345C349.005 263.228 349.25 263.17 349.527 263.17C349.797 263.17 350.037 263.227 350.247 263.34C350.457 263.453 350.62 263.615 350.737 263.825C350.857 264.035 350.917 264.28 350.917 264.56ZM350.042 264.335C350.042 264.188 349.992 264.072 349.892 263.985C349.792 263.898 349.667 263.855 349.517 263.855C349.373 263.855 349.252 263.897 349.152 263.98C349.055 264.063 348.995 264.182 348.972 264.335H350.042ZM351.198 264.6C351.198 264.313 351.251 264.062 351.358 263.845C351.468 263.628 351.616 263.462 351.803 263.345C351.989 263.228 352.198 263.17 352.428 263.17C352.611 263.17 352.778 263.208 352.928 263.285C353.081 263.362 353.201 263.465 353.288 263.595V262.3H354.143V266H353.288V265.6C353.208 265.733 353.093 265.84 352.943 265.92C352.796 266 352.624 266.04 352.428 266.04C352.198 266.04 351.989 265.982 351.803 265.865C351.616 265.745 351.468 265.577 351.358 265.36C351.251 265.14 351.198 264.887 351.198 264.6ZM353.288 264.605C353.288 264.392 353.228 264.223 353.108 264.1C352.991 263.977 352.848 263.915 352.678 263.915C352.508 263.915 352.363 263.977 352.243 264.1C352.126 264.22 352.068 264.387 352.068 264.6C352.068 264.813 352.126 264.983 352.243 265.11C352.363 265.233 352.508 265.295 352.678 265.295C352.848 265.295 352.991 265.233 353.108 265.11C353.228 264.987 353.288 264.818 353.288 264.605ZM357.946 264.2C358.149 264.243 358.312 264.345 358.436 264.505C358.559 264.662 358.621 264.842 358.621 265.045C358.621 265.338 358.517 265.572 358.311 265.745C358.107 265.915 357.822 266 357.456 266H355.821V262.49H357.401C357.757 262.49 358.036 262.572 358.236 262.735C358.439 262.898 358.541 263.12 358.541 263.4C358.541 263.607 358.486 263.778 358.376 263.915C358.269 264.052 358.126 264.147 357.946 264.2ZM356.676 263.91H357.236C357.376 263.91 357.482 263.88 357.556 263.82C357.632 263.757 357.671 263.665 357.671 263.545C357.671 263.425 357.632 263.333 357.556 263.27C357.482 263.207 357.376 263.175 357.236 263.175H356.676V263.91ZM357.306 265.31C357.449 265.31 357.559 265.278 357.636 265.215C357.716 265.148 357.756 265.053 357.756 264.93C357.756 264.807 357.714 264.71 357.631 264.64C357.551 264.57 357.439 264.535 357.296 264.535H356.676V265.31H357.306ZM361.967 263.21L360.217 267.325H359.297L359.937 265.905L358.802 263.21H359.757L360.402 264.955L361.042 263.21H361.967ZM365.37 266L364.19 264.45V266H363.335V262.49H364.19V264.03L365.36 262.49H366.365L365.005 264.21L366.415 266H365.37ZM369.452 264.56C369.452 264.64 369.447 264.723 369.437 264.81H367.502C367.515 264.983 367.57 265.117 367.667 265.21C367.767 265.3 367.888 265.345 368.032 265.345C368.245 265.345 368.393 265.255 368.477 265.075H369.387C369.34 265.258 369.255 265.423 369.132 265.57C369.012 265.717 368.86 265.832 368.677 265.915C368.493 265.998 368.288 266.04 368.062 266.04C367.788 266.04 367.545 265.982 367.332 265.865C367.118 265.748 366.952 265.582 366.832 265.365C366.712 265.148 366.652 264.895 366.652 264.605C366.652 264.315 366.71 264.062 366.827 263.845C366.947 263.628 367.113 263.462 367.327 263.345C367.54 263.228 367.785 263.17 368.062 263.17C368.332 263.17 368.572 263.227 368.782 263.34C368.992 263.453 369.155 263.615 369.272 263.825C369.392 264.035 369.452 264.28 369.452 264.56ZM368.577 264.335C368.577 264.188 368.527 264.072 368.427 263.985C368.327 263.898 368.202 263.855 368.052 263.855C367.908 263.855 367.787 263.897 367.687 263.98C367.59 264.063 367.53 264.182 367.507 264.335H368.577ZM371.038 266.04C370.794 266.04 370.578 265.998 370.388 265.915C370.198 265.832 370.048 265.718 369.938 265.575C369.828 265.428 369.766 265.265 369.753 265.085H370.598C370.608 265.182 370.653 265.26 370.733 265.32C370.813 265.38 370.911 265.41 371.028 265.41C371.134 265.41 371.216 265.39 371.273 265.35C371.333 265.307 371.363 265.252 371.363 265.185C371.363 265.105 371.321 265.047 371.238 265.01C371.154 264.97 371.019 264.927 370.833 264.88C370.633 264.833 370.466 264.785 370.333 264.735C370.199 264.682 370.084 264.6 369.988 264.49C369.891 264.377 369.843 264.225 369.843 264.035C369.843 263.875 369.886 263.73 369.973 263.6C370.063 263.467 370.193 263.362 370.363 263.285C370.536 263.208 370.741 263.17 370.978 263.17C371.328 263.17 371.603 263.257 371.803 263.43C372.006 263.603 372.123 263.833 372.153 264.12H371.363C371.349 264.023 371.306 263.947 371.233 263.89C371.163 263.833 371.069 263.805 370.953 263.805C370.853 263.805 370.776 263.825 370.723 263.865C370.669 263.902 370.643 263.953 370.643 264.02C370.643 264.1 370.684 264.16 370.768 264.2C370.854 264.24 370.988 264.28 371.168 264.32C371.374 264.373 371.543 264.427 371.673 264.48C371.803 264.53 371.916 264.613 372.013 264.73C372.113 264.843 372.164 264.997 372.168 265.19C372.168 265.353 372.121 265.5 372.028 265.63C371.938 265.757 371.806 265.857 371.633 265.93C371.463 266.003 371.264 266.04 371.038 266.04ZM374.406 263.18C374.726 263.18 374.983 263.287 375.176 263.5C375.369 263.71 375.466 264 375.466 264.37V266H374.616V264.485C374.616 264.298 374.568 264.153 374.471 264.05C374.374 263.947 374.244 263.895 374.081 263.895C373.918 263.895 373.788 263.947 373.691 264.05C373.594 264.153 373.546 264.298 373.546 264.485V266H372.691V262.3H373.546V263.585C373.633 263.462 373.751 263.363 373.901 263.29C374.051 263.217 374.219 263.18 374.406 263.18ZM375.89 264.6C375.89 264.313 375.943 264.062 376.05 263.845C376.16 263.628 376.308 263.462 376.495 263.345C376.682 263.228 376.89 263.17 377.12 263.17C377.317 263.17 377.488 263.21 377.635 263.29C377.785 263.37 377.9 263.475 377.98 263.605V263.21H378.835V266H377.98V265.605C377.897 265.735 377.78 265.84 377.63 265.92C377.483 266 377.312 266.04 377.115 266.04C376.888 266.04 376.682 265.982 376.495 265.865C376.308 265.745 376.16 265.577 376.05 265.36C375.943 265.14 375.89 264.887 375.89 264.6ZM377.98 264.605C377.98 264.392 377.92 264.223 377.8 264.1C377.683 263.977 377.54 263.915 377.37 263.915C377.2 263.915 377.055 263.977 376.935 264.1C376.818 264.22 376.76 264.387 376.76 264.6C376.76 264.813 376.818 264.983 376.935 265.11C377.055 265.233 377.2 265.295 377.37 265.295C377.54 265.295 377.683 265.233 377.8 265.11C377.92 264.987 377.98 264.818 377.98 264.605ZM381.154 263.18C381.48 263.18 381.74 263.287 381.934 263.5C382.13 263.71 382.229 264 382.229 264.37V266H381.379V264.485C381.379 264.298 381.33 264.153 381.234 264.05C381.137 263.947 381.007 263.895 380.844 263.895C380.68 263.895 380.55 263.947 380.454 264.05C380.357 264.153 380.309 264.298 380.309 264.485V266H379.454V263.21H380.309V263.58C380.395 263.457 380.512 263.36 380.659 263.29C380.805 263.217 380.97 263.18 381.154 263.18ZM385.672 266L384.942 264.675H384.737V266H383.882V262.49H385.317C385.594 262.49 385.829 262.538 386.022 262.635C386.219 262.732 386.366 262.865 386.462 263.035C386.559 263.202 386.607 263.388 386.607 263.595C386.607 263.828 386.541 264.037 386.407 264.22C386.277 264.403 386.084 264.533 385.827 264.61L386.637 266H385.672ZM384.737 264.07H385.267C385.424 264.07 385.541 264.032 385.617 263.955C385.697 263.878 385.737 263.77 385.737 263.63C385.737 263.497 385.697 263.392 385.617 263.315C385.541 263.238 385.424 263.2 385.267 263.2H384.737V264.07ZM386.974 264.6C386.974 264.313 387.027 264.062 387.134 263.845C387.244 263.628 387.392 263.462 387.579 263.345C387.766 263.228 387.974 263.17 388.204 263.17C388.401 263.17 388.572 263.21 388.719 263.29C388.869 263.37 388.984 263.475 389.064 263.605V263.21H389.919V266H389.064V265.605C388.981 265.735 388.864 265.84 388.714 265.92C388.567 266 388.396 266.04 388.199 266.04C387.972 266.04 387.766 265.982 387.579 265.865C387.392 265.745 387.244 265.577 387.134 265.36C387.027 265.14 386.974 264.887 386.974 264.6ZM389.064 264.605C389.064 264.392 389.004 264.223 388.884 264.1C388.767 263.977 388.624 263.915 388.454 263.915C388.284 263.915 388.139 263.977 388.019 264.1C387.902 264.22 387.844 264.387 387.844 264.6C387.844 264.813 387.902 264.983 388.019 265.11C388.139 265.233 388.284 265.295 388.454 265.295C388.624 265.295 388.767 265.233 388.884 265.11C389.004 264.987 389.064 264.818 389.064 264.605ZM392.238 263.18C392.564 263.18 392.824 263.287 393.018 263.5C393.214 263.71 393.313 264 393.313 264.37V266H392.463V264.485C392.463 264.298 392.414 264.153 392.318 264.05C392.221 263.947 392.091 263.895 391.928 263.895C391.764 263.895 391.634 263.947 391.538 264.05C391.441 264.153 391.393 264.298 391.393 264.485V266H390.538V263.21H391.393V263.58C391.479 263.457 391.596 263.36 391.743 263.29C391.889 263.217 392.054 263.18 392.238 263.18ZM395.042 266.04C394.798 266.04 394.582 265.998 394.392 265.915C394.202 265.832 394.052 265.718 393.942 265.575C393.832 265.428 393.77 265.265 393.757 265.085H394.602C394.612 265.182 394.657 265.26 394.737 265.32C394.817 265.38 394.915 265.41 395.032 265.41C395.138 265.41 395.22 265.39 395.277 265.35C395.337 265.307 395.367 265.252 395.367 265.185C395.367 265.105 395.325 265.047 395.242 265.01C395.158 264.97 395.023 264.927 394.837 264.88C394.637 264.833 394.47 264.785 394.337 264.735C394.203 264.682 394.088 264.6 393.992 264.49C393.895 264.377 393.847 264.225 393.847 264.035C393.847 263.875 393.89 263.73 393.977 263.6C394.067 263.467 394.197 263.362 394.367 263.285C394.54 263.208 394.745 263.17 394.982 263.17C395.332 263.17 395.607 263.257 395.807 263.43C396.01 263.603 396.127 263.833 396.157 264.12H395.367C395.353 264.023 395.31 263.947 395.237 263.89C395.167 263.833 395.073 263.805 394.957 263.805C394.857 263.805 394.78 263.825 394.727 263.865C394.673 263.902 394.647 263.953 394.647 264.02C394.647 264.1 394.688 264.16 394.772 264.2C394.858 264.24 394.992 264.28 395.172 264.32C395.378 264.373 395.547 264.427 395.677 264.48C395.807 264.53 395.92 264.613 396.017 264.73C396.117 264.843 396.168 264.997 396.172 265.19C396.172 265.353 396.125 265.5 396.032 265.63C395.942 265.757 395.81 265.857 395.637 265.93C395.467 266.003 395.268 266.04 395.042 266.04ZM397.125 262.92C396.975 262.92 396.851 262.877 396.755 262.79C396.661 262.7 396.615 262.59 396.615 262.46C396.615 262.327 396.661 262.217 396.755 262.13C396.851 262.04 396.975 261.995 397.125 261.995C397.271 261.995 397.391 262.04 397.485 262.13C397.581 262.217 397.63 262.327 397.63 262.46C397.63 262.59 397.581 262.7 397.485 262.79C397.391 262.877 397.271 262.92 397.125 262.92ZM397.55 263.21V266H396.695V263.21H397.55ZM399.024 262.3V266H398.169V262.3H399.024ZM402.399 263.21V266H401.544V265.62C401.457 265.743 401.339 265.843 401.189 265.92C401.042 265.993 400.879 266.03 400.699 266.03C400.486 266.03 400.297 265.983 400.134 265.89C399.971 265.793 399.844 265.655 399.754 265.475C399.664 265.295 399.619 265.083 399.619 264.84V263.21H400.469V264.725C400.469 264.912 400.517 265.057 400.614 265.16C400.711 265.263 400.841 265.315 401.004 265.315C401.171 265.315 401.302 265.263 401.399 265.16C401.496 265.057 401.544 264.912 401.544 264.725V263.21H402.399Z" fill="black"/>
<rect x="233" y="119" width="58" height="162" rx="13" fill="#3C87FF"/>
<path d="M249.495 137.38H248.185L247.975 138H247.08L248.35 134.49H249.34L250.61 138H249.705L249.495 137.38ZM249.275 136.72L248.84 135.435L248.41 136.72H249.275ZM252.552 137.275V138H252.117C251.807 138 251.565 137.925 251.392 137.775C251.218 137.622 251.132 137.373 251.132 137.03V135.92H250.792V135.21H251.132V134.53H251.987V135.21H252.547V135.92H251.987V137.04C251.987 137.123 252.007 137.183 252.047 137.22C252.087 137.257 252.153 137.275 252.247 137.275H252.552ZM254.583 137.275V138H254.148C253.838 138 253.596 137.925 253.423 137.775C253.249 137.622 253.163 137.373 253.163 137.03V135.92H252.823V135.21H253.163V134.53H254.018V135.21H254.578V135.92H254.018V137.04C254.018 137.123 254.038 137.183 254.078 137.22C254.118 137.257 254.184 137.275 254.278 137.275H254.583ZM257.689 136.56C257.689 136.64 257.684 136.723 257.674 136.81H255.739C255.752 136.983 255.807 137.117 255.904 137.21C256.004 137.3 256.126 137.345 256.269 137.345C256.482 137.345 256.631 137.255 256.714 137.075H257.624C257.577 137.258 257.492 137.423 257.369 137.57C257.249 137.717 257.097 137.832 256.914 137.915C256.731 137.998 256.526 138.04 256.299 138.04C256.026 138.04 255.782 137.982 255.569 137.865C255.356 137.748 255.189 137.582 255.069 137.365C254.949 137.148 254.889 136.895 254.889 136.605C254.889 136.315 254.947 136.062 255.064 135.845C255.184 135.628 255.351 135.462 255.564 135.345C255.777 135.228 256.022 135.17 256.299 135.17C256.569 135.17 256.809 135.227 257.019 135.34C257.229 135.453 257.392 135.615 257.509 135.825C257.629 136.035 257.689 136.28 257.689 136.56ZM256.814 136.335C256.814 136.188 256.764 136.072 256.664 135.985C256.564 135.898 256.439 135.855 256.289 135.855C256.146 135.855 256.024 135.897 255.924 135.98C255.827 136.063 255.767 136.182 255.744 136.335H256.814ZM259.84 135.18C260.167 135.18 260.427 135.287 260.62 135.5C260.817 135.71 260.915 136 260.915 136.37V138H260.065V136.485C260.065 136.298 260.017 136.153 259.92 136.05C259.823 135.947 259.693 135.895 259.53 135.895C259.367 135.895 259.237 135.947 259.14 136.05C259.043 136.153 258.995 136.298 258.995 136.485V138H258.14V135.21H258.995V135.58C259.082 135.457 259.198 135.36 259.345 135.29C259.492 135.217 259.657 135.18 259.84 135.18ZM261.339 136.6C261.339 136.313 261.393 136.062 261.499 135.845C261.609 135.628 261.758 135.462 261.944 135.345C262.131 135.228 262.339 135.17 262.569 135.17C262.753 135.17 262.919 135.208 263.069 135.285C263.223 135.362 263.343 135.465 263.429 135.595V134.3H264.284V138H263.429V137.6C263.349 137.733 263.234 137.84 263.084 137.92C262.938 138 262.766 138.04 262.569 138.04C262.339 138.04 262.131 137.982 261.944 137.865C261.758 137.745 261.609 137.577 261.499 137.36C261.393 137.14 261.339 136.887 261.339 136.6ZM263.429 136.605C263.429 136.392 263.369 136.223 263.249 136.1C263.133 135.977 262.989 135.915 262.819 135.915C262.649 135.915 262.504 135.977 262.384 136.1C262.268 136.22 262.209 136.387 262.209 136.6C262.209 136.813 262.268 136.983 262.384 137.11C262.504 137.233 262.649 137.295 262.819 137.295C262.989 137.295 263.133 137.233 263.249 137.11C263.369 136.987 263.429 136.818 263.429 136.605ZM264.733 136.6C264.733 136.313 264.786 136.062 264.893 135.845C265.003 135.628 265.151 135.462 265.338 135.345C265.524 135.228 265.733 135.17 265.963 135.17C266.159 135.17 266.331 135.21 266.478 135.29C266.628 135.37 266.743 135.475 266.823 135.605V135.21H267.678V138H266.823V137.605C266.739 137.735 266.623 137.84 266.473 137.92C266.326 138 266.154 138.04 265.958 138.04C265.731 138.04 265.524 137.982 265.338 137.865C265.151 137.745 265.003 137.577 264.893 137.36C264.786 137.14 264.733 136.887 264.733 136.6ZM266.823 136.605C266.823 136.392 266.763 136.223 266.643 136.1C266.526 135.977 266.383 135.915 266.213 135.915C266.043 135.915 265.898 135.977 265.778 136.1C265.661 136.22 265.603 136.387 265.603 136.6C265.603 136.813 265.661 136.983 265.778 137.11C265.898 137.233 266.043 137.295 266.213 137.295C266.383 137.295 266.526 137.233 266.643 137.11C266.763 136.987 266.823 136.818 266.823 136.605ZM269.996 135.18C270.323 135.18 270.583 135.287 270.776 135.5C270.973 135.71 271.071 136 271.071 136.37V138H270.221V136.485C270.221 136.298 270.173 136.153 270.076 136.05C269.98 135.947 269.85 135.895 269.686 135.895C269.523 135.895 269.393 135.947 269.296 136.05C269.2 136.153 269.151 136.298 269.151 136.485V138H268.296V135.21H269.151V135.58C269.238 135.457 269.355 135.36 269.501 135.29C269.648 135.217 269.813 135.18 269.996 135.18ZM271.495 136.605C271.495 136.315 271.554 136.062 271.67 135.845C271.79 135.628 271.955 135.462 272.165 135.345C272.379 135.228 272.622 135.17 272.895 135.17C273.245 135.17 273.537 135.262 273.77 135.445C274.007 135.628 274.162 135.887 274.235 136.22H273.325C273.249 136.007 273.1 135.9 272.88 135.9C272.724 135.9 272.599 135.962 272.505 136.085C272.412 136.205 272.365 136.378 272.365 136.605C272.365 136.832 272.412 137.007 272.505 137.13C272.599 137.25 272.724 137.31 272.88 137.31C273.1 137.31 273.249 137.203 273.325 136.99H274.235C274.162 137.317 274.007 137.573 273.77 137.76C273.534 137.947 273.242 138.04 272.895 138.04C272.622 138.04 272.379 137.982 272.165 137.865C271.955 137.748 271.79 137.582 271.67 137.365C271.554 137.148 271.495 136.895 271.495 136.605ZM277.323 136.56C277.323 136.64 277.318 136.723 277.308 136.81H275.373C275.386 136.983 275.441 137.117 275.538 137.21C275.638 137.3 275.759 137.345 275.903 137.345C276.116 137.345 276.264 137.255 276.348 137.075H277.258C277.211 137.258 277.126 137.423 277.003 137.57C276.883 137.717 276.731 137.832 276.548 137.915C276.364 137.998 276.159 138.04 275.933 138.04C275.659 138.04 275.416 137.982 275.203 137.865C274.989 137.748 274.823 137.582 274.703 137.365C274.583 137.148 274.523 136.895 274.523 136.605C274.523 136.315 274.581 136.062 274.698 135.845C274.818 135.628 274.984 135.462 275.198 135.345C275.411 135.228 275.656 135.17 275.933 135.17C276.203 135.17 276.443 135.227 276.653 135.34C276.863 135.453 277.026 135.615 277.143 135.825C277.263 136.035 277.323 136.28 277.323 136.56ZM276.448 136.335C276.448 136.188 276.398 136.072 276.298 135.985C276.198 135.898 276.073 135.855 275.923 135.855C275.779 135.855 275.658 135.897 275.558 135.98C275.461 136.063 275.401 136.182 275.378 136.335H276.448ZM249.835 142.49V143.175H248.905V146H248.05V143.175H247.12V142.49H249.835ZM251.119 143.675C251.219 143.522 251.344 143.402 251.494 143.315C251.644 143.225 251.811 143.18 251.994 143.18V144.085H251.759C251.546 144.085 251.386 144.132 251.279 144.225C251.172 144.315 251.119 144.475 251.119 144.705V146H250.264V143.21H251.119V143.675ZM252.233 144.6C252.233 144.313 252.286 144.062 252.393 143.845C252.503 143.628 252.651 143.462 252.838 143.345C253.024 143.228 253.233 143.17 253.463 143.17C253.659 143.17 253.831 143.21 253.978 143.29C254.128 143.37 254.243 143.475 254.323 143.605V143.21H255.178V146H254.323V145.605C254.239 145.735 254.123 145.84 253.973 145.92C253.826 146 253.654 146.04 253.458 146.04C253.231 146.04 253.024 145.982 252.838 145.865C252.651 145.745 252.503 145.577 252.393 145.36C252.286 145.14 252.233 144.887 252.233 144.6ZM254.323 144.605C254.323 144.392 254.263 144.223 254.143 144.1C254.026 143.977 253.883 143.915 253.713 143.915C253.543 143.915 253.398 143.977 253.278 144.1C253.161 144.22 253.103 144.387 253.103 144.6C253.103 144.813 253.161 144.983 253.278 145.11C253.398 145.233 253.543 145.295 253.713 145.295C253.883 145.295 254.026 145.233 254.143 145.11C254.263 144.987 254.323 144.818 254.323 144.605ZM255.626 144.605C255.626 144.315 255.685 144.062 255.801 143.845C255.921 143.628 256.086 143.462 256.296 143.345C256.51 143.228 256.753 143.17 257.026 143.17C257.376 143.17 257.668 143.262 257.901 143.445C258.138 143.628 258.293 143.887 258.366 144.22H257.456C257.38 144.007 257.231 143.9 257.011 143.9C256.855 143.9 256.73 143.962 256.636 144.085C256.543 144.205 256.496 144.378 256.496 144.605C256.496 144.832 256.543 145.007 256.636 145.13C256.73 145.25 256.855 145.31 257.011 145.31C257.231 145.31 257.38 145.203 257.456 144.99H258.366C258.293 145.317 258.138 145.573 257.901 145.76C257.665 145.947 257.373 146.04 257.026 146.04C256.753 146.04 256.51 145.982 256.296 145.865C256.086 145.748 255.921 145.582 255.801 145.365C255.685 145.148 255.626 144.895 255.626 144.605ZM260.529 146L259.679 144.83V146H258.824V142.3H259.679V144.345L260.524 143.21H261.579L260.419 144.61L261.589 146H260.529ZM262.344 142.92C262.194 142.92 262.071 142.877 261.974 142.79C261.881 142.7 261.834 142.59 261.834 142.46C261.834 142.327 261.881 142.217 261.974 142.13C262.071 142.04 262.194 141.995 262.344 141.995C262.491 141.995 262.611 142.04 262.704 142.13C262.801 142.217 262.849 142.327 262.849 142.46C262.849 142.59 262.801 142.7 262.704 142.79C262.611 142.877 262.491 142.92 262.344 142.92ZM262.769 143.21V146H261.914V143.21H262.769ZM265.089 143.18C265.416 143.18 265.676 143.287 265.869 143.5C266.066 143.71 266.164 144 266.164 144.37V146H265.314V144.485C265.314 144.298 265.266 144.153 265.169 144.05C265.072 143.947 264.942 143.895 264.779 143.895C264.616 143.895 264.486 143.947 264.389 144.05C264.292 144.153 264.244 144.298 264.244 144.485V146H263.389V143.21H264.244V143.58C264.331 143.457 264.447 143.36 264.594 143.29C264.741 143.217 264.906 143.18 265.089 143.18ZM267.818 143.17C268.015 143.17 268.187 143.21 268.333 143.29C268.483 143.37 268.598 143.475 268.678 143.605V143.21H269.533V145.995C269.533 146.252 269.482 146.483 269.378 146.69C269.278 146.9 269.123 147.067 268.913 147.19C268.707 147.313 268.448 147.375 268.138 147.375C267.725 147.375 267.39 147.277 267.133 147.08C266.877 146.887 266.73 146.623 266.693 146.29H267.538C267.565 146.397 267.628 146.48 267.728 146.54C267.828 146.603 267.952 146.635 268.098 146.635C268.275 146.635 268.415 146.583 268.518 146.48C268.625 146.38 268.678 146.218 268.678 145.995V145.6C268.595 145.73 268.48 145.837 268.333 145.92C268.187 146 268.015 146.04 267.818 146.04C267.588 146.04 267.38 145.982 267.193 145.865C267.007 145.745 266.858 145.577 266.748 145.36C266.642 145.14 266.588 144.887 266.588 144.6C266.588 144.313 266.642 144.062 266.748 143.845C266.858 143.628 267.007 143.462 267.193 143.345C267.38 143.228 267.588 143.17 267.818 143.17ZM268.678 144.605C268.678 144.392 268.618 144.223 268.498 144.1C268.382 143.977 268.238 143.915 268.068 143.915C267.898 143.915 267.753 143.977 267.633 144.1C267.517 144.22 267.458 144.387 267.458 144.6C267.458 144.813 267.517 144.983 267.633 145.11C267.753 145.233 267.898 145.295 268.068 145.295C268.238 145.295 268.382 145.233 268.498 145.11C268.618 144.987 268.678 144.818 268.678 144.605ZM248.58 154.035C248.323 154.035 248.093 153.993 247.89 153.91C247.687 153.827 247.523 153.703 247.4 153.54C247.28 153.377 247.217 153.18 247.21 152.95H248.12C248.133 153.08 248.178 153.18 248.255 153.25C248.332 153.317 248.432 153.35 248.555 153.35C248.682 153.35 248.782 153.322 248.855 153.265C248.928 153.205 248.965 153.123 248.965 153.02C248.965 152.933 248.935 152.862 248.875 152.805C248.818 152.748 248.747 152.702 248.66 152.665C248.577 152.628 248.457 152.587 248.3 152.54C248.073 152.47 247.888 152.4 247.745 152.33C247.602 152.26 247.478 152.157 247.375 152.02C247.272 151.883 247.22 151.705 247.22 151.485C247.22 151.158 247.338 150.903 247.575 150.72C247.812 150.533 248.12 150.44 248.5 150.44C248.887 150.44 249.198 150.533 249.435 150.72C249.672 150.903 249.798 151.16 249.815 151.49H248.89C248.883 151.377 248.842 151.288 248.765 151.225C248.688 151.158 248.59 151.125 248.47 151.125C248.367 151.125 248.283 151.153 248.22 151.21C248.157 151.263 248.125 151.342 248.125 151.445C248.125 151.558 248.178 151.647 248.285 151.71C248.392 151.773 248.558 151.842 248.785 151.915C249.012 151.992 249.195 152.065 249.335 152.135C249.478 152.205 249.602 152.307 249.705 152.44C249.808 152.573 249.86 152.745 249.86 152.955C249.86 153.155 249.808 153.337 249.705 153.5C249.605 153.663 249.458 153.793 249.265 153.89C249.072 153.987 248.843 154.035 248.58 154.035ZM253.236 151.21L251.486 155.325H250.566L251.206 153.905L250.071 151.21H251.026L251.671 152.955L252.311 151.21H253.236ZM254.68 154.04C254.437 154.04 254.22 153.998 254.03 153.915C253.84 153.832 253.69 153.718 253.58 153.575C253.47 153.428 253.409 153.265 253.395 153.085H254.24C254.25 153.182 254.295 153.26 254.375 153.32C254.455 153.38 254.554 153.41 254.67 153.41C254.777 153.41 254.859 153.39 254.915 153.35C254.975 153.307 255.005 153.252 255.005 153.185C255.005 153.105 254.964 153.047 254.88 153.01C254.797 152.97 254.662 152.927 254.475 152.88C254.275 152.833 254.109 152.785 253.975 152.735C253.842 152.682 253.727 152.6 253.63 152.49C253.534 152.377 253.485 152.225 253.485 152.035C253.485 151.875 253.529 151.73 253.615 151.6C253.705 151.467 253.835 151.362 254.005 151.285C254.179 151.208 254.384 151.17 254.62 151.17C254.97 151.17 255.245 151.257 255.445 151.43C255.649 151.603 255.765 151.833 255.795 152.12H255.005C254.992 152.023 254.949 151.947 254.875 151.89C254.805 151.833 254.712 151.805 254.595 151.805C254.495 151.805 254.419 151.825 254.365 151.865C254.312 151.902 254.285 151.953 254.285 152.02C254.285 152.1 254.327 152.16 254.41 152.2C254.497 152.24 254.63 152.28 254.81 152.32C255.017 152.373 255.185 152.427 255.315 152.48C255.445 152.53 255.559 152.613 255.655 152.73C255.755 152.843 255.807 152.997 255.81 153.19C255.81 153.353 255.764 153.5 255.67 153.63C255.58 153.757 255.449 153.857 255.275 153.93C255.105 154.003 254.907 154.04 254.68 154.04ZM257.888 153.275V154H257.453C257.143 154 256.902 153.925 256.728 153.775C256.555 153.622 256.468 153.373 256.468 153.03V151.92H256.128V151.21H256.468V150.53H257.323V151.21H257.883V151.92H257.323V153.04C257.323 153.123 257.343 153.183 257.383 153.22C257.423 153.257 257.49 153.275 257.583 153.275H257.888ZM260.995 152.56C260.995 152.64 260.99 152.723 260.98 152.81H259.045C259.058 152.983 259.113 153.117 259.21 153.21C259.31 153.3 259.431 153.345 259.575 153.345C259.788 153.345 259.936 153.255 260.02 153.075H260.93C260.883 153.258 260.798 153.423 260.675 153.57C260.555 153.717 260.403 153.832 260.22 153.915C260.036 153.998 259.831 154.04 259.605 154.04C259.331 154.04 259.088 153.982 258.875 153.865C258.661 153.748 258.495 153.582 258.375 153.365C258.255 153.148 258.195 152.895 258.195 152.605C258.195 152.315 258.253 152.062 258.37 151.845C258.49 151.628 258.656 151.462 258.87 151.345C259.083 151.228 259.328 151.17 259.605 151.17C259.875 151.17 260.115 151.227 260.325 151.34C260.535 151.453 260.698 151.615 260.815 151.825C260.935 152.035 260.995 152.28 260.995 152.56ZM260.12 152.335C260.12 152.188 260.07 152.072 259.97 151.985C259.87 151.898 259.745 151.855 259.595 151.855C259.451 151.855 259.33 151.897 259.23 151.98C259.133 152.063 259.073 152.182 259.05 152.335H260.12ZM265.006 151.18C265.352 151.18 265.627 151.285 265.831 151.495C266.037 151.705 266.141 151.997 266.141 152.37V154H265.291V152.485C265.291 152.305 265.242 152.167 265.146 152.07C265.052 151.97 264.922 151.92 264.756 151.92C264.589 151.92 264.457 151.97 264.361 152.07C264.267 152.167 264.221 152.305 264.221 152.485V154H263.371V152.485C263.371 152.305 263.322 152.167 263.226 152.07C263.132 151.97 263.002 151.92 262.836 151.92C262.669 151.92 262.537 151.97 262.441 152.07C262.347 152.167 262.301 152.305 262.301 152.485V154H261.446V151.21H262.301V151.56C262.387 151.443 262.501 151.352 262.641 151.285C262.781 151.215 262.939 151.18 263.116 151.18C263.326 151.18 263.512 151.225 263.676 151.315C263.842 151.405 263.972 151.533 264.066 151.7C264.162 151.547 264.294 151.422 264.461 151.325C264.627 151.228 264.809 151.18 265.006 151.18Z" fill="white"/>
<rect x="310" y="151" width="12" height="9" fill="#000CF7"/>
<rect x="310" y="175" width="12" height="9" fill="#ED2727"/>
<rect x="310" y="187" width="12" height="9" fill="#03B909"/>
<rect x="310" y="163" width="12" height="9" fill="#E3C604"/>
<path d="M328.791 154.572C328.791 154.694 328.763 154.806 328.707 154.908C328.651 155.008 328.565 155.089 328.449 155.151C328.333 155.213 328.189 155.244 328.017 155.244H327.699V156H327.186V153.894H328.017C328.185 153.894 328.327 153.923 328.443 153.981C328.559 154.039 328.646 154.119 328.704 154.221C328.762 154.323 328.791 154.44 328.791 154.572ZM327.978 154.836C328.076 154.836 328.149 154.813 328.197 154.767C328.245 154.721 328.269 154.656 328.269 154.572C328.269 154.488 328.245 154.423 328.197 154.377C328.149 154.331 328.076 154.308 327.978 154.308H327.699V154.836H327.978ZM329.961 154.605C330.021 154.513 330.096 154.441 330.186 154.389C330.276 154.335 330.376 154.308 330.486 154.308V154.851H330.345C330.217 154.851 330.121 154.879 330.057 154.935C329.993 154.989 329.961 155.085 329.961 155.223V156H329.448V154.326H329.961V154.605ZM332.699 155.136C332.699 155.184 332.696 155.234 332.69 155.286H331.529C331.537 155.39 331.57 155.47 331.628 155.526C331.688 155.58 331.761 155.607 331.847 155.607C331.975 155.607 332.064 155.553 332.114 155.445H332.66C332.632 155.555 332.581 155.654 332.507 155.742C332.435 155.83 332.344 155.899 332.234 155.949C332.124 155.999 332.001 156.024 331.865 156.024C331.701 156.024 331.555 155.989 331.427 155.919C331.299 155.849 331.199 155.749 331.127 155.619C331.055 155.489 331.019 155.337 331.019 155.163C331.019 154.989 331.054 154.837 331.124 154.707C331.196 154.577 331.296 154.477 331.424 154.407C331.552 154.337 331.699 154.302 331.865 154.302C332.027 154.302 332.171 154.336 332.297 154.404C332.423 154.472 332.521 154.569 332.591 154.695C332.663 154.821 332.699 154.968 332.699 155.136ZM332.174 155.001C332.174 154.913 332.144 154.843 332.084 154.791C332.024 154.739 331.949 154.713 331.859 154.713C331.773 154.713 331.7 154.738 331.64 154.788C331.582 154.838 331.546 154.909 331.532 155.001H332.174ZM334.041 156.024C333.895 156.024 333.765 155.999 333.651 155.949C333.537 155.899 333.447 155.831 333.381 155.745C333.315 155.657 333.278 155.559 333.27 155.451H333.777C333.783 155.509 333.81 155.556 333.858 155.592C333.906 155.628 333.965 155.646 334.035 155.646C334.099 155.646 334.148 155.634 334.182 155.61C334.218 155.584 334.236 155.551 334.236 155.511C334.236 155.463 334.211 155.428 334.161 155.406C334.111 155.382 334.03 155.356 333.918 155.328C333.798 155.3 333.698 155.271 333.618 155.241C333.538 155.209 333.469 155.16 333.411 155.094C333.353 155.026 333.324 154.935 333.324 154.821C333.324 154.725 333.35 154.638 333.402 154.56C333.456 154.48 333.534 154.417 333.636 154.371C333.74 154.325 333.863 154.302 334.005 154.302C334.215 154.302 334.38 154.354 334.5 154.458C334.622 154.562 334.692 154.7 334.71 154.872H334.236C334.228 154.814 334.202 154.768 334.158 154.734C334.116 154.7 334.06 154.683 333.99 154.683C333.93 154.683 333.884 154.695 333.852 154.719C333.82 154.741 333.804 154.772 333.804 154.812C333.804 154.86 333.829 154.896 333.879 154.92C333.931 154.944 334.011 154.968 334.119 154.992C334.243 155.024 334.344 155.056 334.422 155.088C334.5 155.118 334.568 155.168 334.626 155.238C334.686 155.306 334.717 155.398 334.719 155.514C334.719 155.612 334.691 155.7 334.635 155.778C334.581 155.854 334.502 155.914 334.398 155.958C334.296 156.002 334.177 156.024 334.041 156.024ZM337.001 155.136C337.001 155.184 336.998 155.234 336.992 155.286H335.831C335.839 155.39 335.872 155.47 335.93 155.526C335.99 155.58 336.063 155.607 336.149 155.607C336.277 155.607 336.366 155.553 336.416 155.445H336.962C336.934 155.555 336.883 155.654 336.809 155.742C336.737 155.83 336.646 155.899 336.536 155.949C336.426 155.999 336.303 156.024 336.167 156.024C336.003 156.024 335.857 155.989 335.729 155.919C335.601 155.849 335.501 155.749 335.429 155.619C335.357 155.489 335.321 155.337 335.321 155.163C335.321 154.989 335.356 154.837 335.426 154.707C335.498 154.577 335.598 154.477 335.726 154.407C335.854 154.337 336.001 154.302 336.167 154.302C336.329 154.302 336.473 154.336 336.599 154.404C336.725 154.472 336.823 154.569 336.893 154.695C336.965 154.821 337.001 154.968 337.001 155.136ZM336.476 155.001C336.476 154.913 336.446 154.843 336.386 154.791C336.326 154.739 336.251 154.713 336.161 154.713C336.075 154.713 336.002 154.738 335.942 154.788C335.884 154.838 335.848 154.909 335.834 155.001H336.476ZM338.681 154.308C338.877 154.308 339.033 154.372 339.149 154.5C339.267 154.626 339.326 154.8 339.326 155.022V156H338.816V155.091C338.816 154.979 338.787 154.892 338.729 154.83C338.671 154.768 338.593 154.737 338.495 154.737C338.397 154.737 338.319 154.768 338.261 154.83C338.203 154.892 338.174 154.979 338.174 155.091V156H337.661V154.326H338.174V154.548C338.226 154.474 338.296 154.416 338.384 154.374C338.472 154.33 338.571 154.308 338.681 154.308ZM341.006 155.565V156H340.745C340.559 156 340.414 155.955 340.31 155.865C340.206 155.773 340.154 155.624 340.154 155.418V154.752H339.95V154.326H340.154V153.918H340.667V154.326H341.003V154.752H340.667V155.424C340.667 155.474 340.679 155.51 340.703 155.532C340.727 155.554 340.767 155.565 340.823 155.565H341.006Z" fill="black"/>
<path d="M327.699 168.604H328.371V169H327.186V166.894H327.699V168.604ZM330.584 168.136C330.584 168.184 330.581 168.234 330.575 168.286H329.414C329.422 168.39 329.455 168.47 329.513 168.526C329.573 168.58 329.646 168.607 329.732 168.607C329.86 168.607 329.949 168.553 329.999 168.445H330.545C330.517 168.555 330.466 168.654 330.392 168.742C330.32 168.83 330.229 168.899 330.119 168.949C330.009 168.999 329.886 169.024 329.75 169.024C329.586 169.024 329.44 168.989 329.312 168.919C329.184 168.849 329.084 168.749 329.012 168.619C328.94 168.489 328.904 168.337 328.904 168.163C328.904 167.989 328.939 167.837 329.009 167.707C329.081 167.577 329.181 167.477 329.309 167.407C329.437 167.337 329.584 167.302 329.75 167.302C329.912 167.302 330.056 167.336 330.182 167.404C330.308 167.472 330.406 167.569 330.476 167.695C330.548 167.821 330.584 167.968 330.584 168.136ZM330.059 168.001C330.059 167.913 330.029 167.843 329.969 167.791C329.909 167.739 329.834 167.713 329.744 167.713C329.658 167.713 329.585 167.738 329.525 167.788C329.467 167.838 329.431 167.909 329.417 168.001H330.059ZM331.142 168.16C331.142 167.988 331.174 167.837 331.238 167.707C331.304 167.577 331.393 167.477 331.505 167.407C331.617 167.337 331.742 167.302 331.88 167.302C331.998 167.302 332.101 167.326 332.189 167.374C332.279 167.422 332.348 167.485 332.396 167.563V167.326H332.909V169H332.396V168.763C332.346 168.841 332.276 168.904 332.186 168.952C332.098 169 331.995 169.024 331.877 169.024C331.741 169.024 331.617 168.989 331.505 168.919C331.393 168.847 331.304 168.746 331.238 168.616C331.174 168.484 331.142 168.332 331.142 168.16ZM332.396 168.163C332.396 168.035 332.36 167.934 332.288 167.86C332.218 167.786 332.132 167.749 332.03 167.749C331.928 167.749 331.841 167.786 331.769 167.86C331.699 167.932 331.664 168.032 331.664 168.16C331.664 168.288 331.699 168.39 331.769 168.466C331.841 168.54 331.928 168.577 332.03 168.577C332.132 168.577 332.218 168.54 332.288 168.466C332.36 168.392 332.396 168.291 332.396 168.163ZM334.423 168.52L334.786 167.326H335.332L334.738 169H334.105L333.511 167.326H334.06L334.423 168.52ZM337.516 168.136C337.516 168.184 337.513 168.234 337.507 168.286H336.346C336.354 168.39 336.387 168.47 336.445 168.526C336.505 168.58 336.578 168.607 336.664 168.607C336.792 168.607 336.881 168.553 336.931 168.445H337.477C337.449 168.555 337.398 168.654 337.324 168.742C337.252 168.83 337.161 168.899 337.051 168.949C336.941 168.999 336.818 169.024 336.682 169.024C336.518 169.024 336.372 168.989 336.244 168.919C336.116 168.849 336.016 168.749 335.944 168.619C335.872 168.489 335.836 168.337 335.836 168.163C335.836 167.989 335.871 167.837 335.941 167.707C336.013 167.577 336.113 167.477 336.241 167.407C336.369 167.337 336.516 167.302 336.682 167.302C336.844 167.302 336.988 167.336 337.114 167.404C337.24 167.472 337.338 167.569 337.408 167.695C337.48 167.821 337.516 167.968 337.516 168.136ZM336.991 168.001C336.991 167.913 336.961 167.843 336.901 167.791C336.841 167.739 336.766 167.713 336.676 167.713C336.59 167.713 336.517 167.738 336.457 167.788C336.399 167.838 336.363 167.909 336.349 168.001H336.991Z" fill="black"/>
<path d="M328.497 181.628H327.711L327.585 182H327.048L327.81 179.894H328.404L329.166 182H328.623L328.497 181.628ZM328.365 181.232L328.104 180.461L327.846 181.232H328.365ZM330.301 180.563C330.349 180.485 330.418 180.422 330.508 180.374C330.598 180.326 330.701 180.302 330.817 180.302C330.955 180.302 331.08 180.337 331.192 180.407C331.304 180.477 331.392 180.577 331.456 180.707C331.522 180.837 331.555 180.988 331.555 181.16C331.555 181.332 331.522 181.484 331.456 181.616C331.392 181.746 331.304 181.847 331.192 181.919C331.08 181.989 330.955 182.024 330.817 182.024C330.699 182.024 330.596 182.001 330.508 181.955C330.42 181.907 330.351 181.844 330.301 181.766V182H329.788V179.78H330.301V180.563ZM331.033 181.16C331.033 181.032 330.997 180.932 330.925 180.86C330.855 180.786 330.768 180.749 330.664 180.749C330.562 180.749 330.475 180.786 330.403 180.86C330.333 180.934 330.298 181.035 330.298 181.163C330.298 181.291 330.333 181.392 330.403 181.466C330.475 181.54 330.562 181.577 330.664 181.577C330.766 181.577 330.853 181.54 330.925 181.466C330.997 181.39 331.033 181.288 331.033 181.16ZM332.895 182.024C332.749 182.024 332.619 181.999 332.505 181.949C332.391 181.899 332.301 181.831 332.235 181.745C332.169 181.657 332.132 181.559 332.124 181.451H332.631C332.637 181.509 332.664 181.556 332.712 181.592C332.76 181.628 332.819 181.646 332.889 181.646C332.953 181.646 333.002 181.634 333.036 181.61C333.072 181.584 333.09 181.551 333.09 181.511C333.09 181.463 333.065 181.428 333.015 181.406C332.965 181.382 332.884 181.356 332.772 181.328C332.652 181.3 332.552 181.271 332.472 181.241C332.392 181.209 332.323 181.16 332.265 181.094C332.207 181.026 332.178 180.935 332.178 180.821C332.178 180.725 332.204 180.638 332.256 180.56C332.31 180.48 332.388 180.417 332.49 180.371C332.594 180.325 332.717 180.302 332.859 180.302C333.069 180.302 333.234 180.354 333.354 180.458C333.476 180.562 333.546 180.7 333.564 180.872H333.09C333.082 180.814 333.056 180.768 333.012 180.734C332.97 180.7 332.914 180.683 332.844 180.683C332.784 180.683 332.738 180.695 332.706 180.719C332.674 180.741 332.658 180.772 332.658 180.812C332.658 180.86 332.683 180.896 332.733 180.92C332.785 180.944 332.865 180.968 332.973 180.992C333.097 181.024 333.198 181.056 333.276 181.088C333.354 181.118 333.422 181.168 333.48 181.238C333.54 181.306 333.571 181.398 333.573 181.514C333.573 181.612 333.545 181.7 333.489 181.778C333.435 181.854 333.356 181.914 333.252 181.958C333.15 182.002 333.031 182.024 332.895 182.024ZM335.855 181.136C335.855 181.184 335.852 181.234 335.846 181.286H334.685C334.693 181.39 334.726 181.47 334.784 181.526C334.844 181.58 334.917 181.607 335.003 181.607C335.131 181.607 335.22 181.553 335.27 181.445H335.816C335.788 181.555 335.737 181.654 335.663 181.742C335.591 181.83 335.5 181.899 335.39 181.949C335.28 181.999 335.157 182.024 335.021 182.024C334.857 182.024 334.711 181.989 334.583 181.919C334.455 181.849 334.355 181.749 334.283 181.619C334.211 181.489 334.175 181.337 334.175 181.163C334.175 180.989 334.21 180.837 334.28 180.707C334.352 180.577 334.452 180.477 334.58 180.407C334.708 180.337 334.855 180.302 335.021 180.302C335.183 180.302 335.327 180.336 335.453 180.404C335.579 180.472 335.677 180.569 335.747 180.695C335.819 180.821 335.855 180.968 335.855 181.136ZM335.33 181.001C335.33 180.913 335.3 180.843 335.24 180.791C335.18 180.739 335.105 180.713 335.015 180.713C334.929 180.713 334.856 180.738 334.796 180.788C334.738 180.838 334.702 180.909 334.688 181.001H335.33ZM337.536 180.308C337.732 180.308 337.888 180.372 338.004 180.5C338.122 180.626 338.181 180.8 338.181 181.022V182H337.671V181.091C337.671 180.979 337.642 180.892 337.584 180.83C337.526 180.768 337.448 180.737 337.35 180.737C337.252 180.737 337.174 180.768 337.116 180.83C337.058 180.892 337.029 180.979 337.029 181.091V182H336.516V180.326H337.029V180.548C337.081 180.474 337.151 180.416 337.239 180.374C337.327 180.33 337.426 180.308 337.536 180.308ZM339.86 181.565V182H339.599C339.413 182 339.268 181.955 339.164 181.865C339.06 181.773 339.008 181.624 339.008 181.418V180.752H338.804V180.326H339.008V179.918H339.521V180.326H339.857V180.752H339.521V181.424C339.521 181.474 339.533 181.51 339.557 181.532C339.581 181.554 339.621 181.565 339.677 181.565H339.86Z" fill="black"/>
<path d="M328.182 194.021C327.984 194.021 327.802 193.975 327.636 193.883C327.472 193.791 327.341 193.663 327.243 193.499C327.147 193.333 327.099 193.147 327.099 192.941C327.099 192.735 327.147 192.55 327.243 192.386C327.341 192.222 327.472 192.094 327.636 192.002C327.802 191.91 327.984 191.864 328.182 191.864C328.38 191.864 328.561 191.91 328.725 192.002C328.891 192.094 329.021 192.222 329.115 192.386C329.211 192.55 329.259 192.735 329.259 192.941C329.259 193.147 329.211 193.333 329.115 193.499C329.019 193.663 328.889 193.791 328.725 193.883C328.561 193.975 328.38 194.021 328.182 194.021ZM328.182 193.553C328.35 193.553 328.484 193.497 328.584 193.385C328.686 193.273 328.737 193.125 328.737 192.941C328.737 192.755 328.686 192.607 328.584 192.497C328.484 192.385 328.35 192.329 328.182 192.329C328.012 192.329 327.876 192.384 327.774 192.494C327.674 192.604 327.624 192.753 327.624 192.941C327.624 193.127 327.674 193.276 327.774 193.388C327.876 193.498 328.012 193.553 328.182 193.553ZM330.954 192.308C331.15 192.308 331.306 192.372 331.422 192.5C331.54 192.626 331.599 192.8 331.599 193.022V194H331.089V193.091C331.089 192.979 331.06 192.892 331.002 192.83C330.944 192.768 330.866 192.737 330.768 192.737C330.67 192.737 330.592 192.768 330.534 192.83C330.476 192.892 330.447 192.979 330.447 193.091V194H329.934V192.326H330.447V192.548C330.499 192.474 330.569 192.416 330.657 192.374C330.745 192.33 330.844 192.308 330.954 192.308ZM336.27 191.894L335.721 194H335.1L334.764 192.614L334.416 194H333.795L333.261 191.894H333.81L334.113 193.427L334.488 191.894H335.052L335.412 193.427L335.718 191.894H336.27ZM336.815 193.16C336.815 192.988 336.847 192.837 336.911 192.707C336.977 192.577 337.066 192.477 337.178 192.407C337.29 192.337 337.415 192.302 337.553 192.302C337.671 192.302 337.774 192.326 337.862 192.374C337.952 192.422 338.021 192.485 338.069 192.563V192.326H338.582V194H338.069V193.763C338.019 193.841 337.949 193.904 337.859 193.952C337.771 194 337.668 194.024 337.55 194.024C337.414 194.024 337.29 193.989 337.178 193.919C337.066 193.847 336.977 193.746 336.911 193.616C336.847 193.484 336.815 193.332 336.815 193.16ZM338.069 193.163C338.069 193.035 338.033 192.934 337.961 192.86C337.891 192.786 337.805 192.749 337.703 192.749C337.601 192.749 337.514 192.786 337.442 192.86C337.372 192.932 337.337 193.032 337.337 193.16C337.337 193.288 337.372 193.39 337.442 193.466C337.514 193.54 337.601 193.577 337.703 193.577C337.805 193.577 337.891 193.54 337.961 193.466C338.033 193.392 338.069 193.291 338.069 193.163ZM341.053 192.326L340.003 194.795H339.451L339.835 193.943L339.154 192.326H339.727L340.114 193.373L340.498 192.326H341.053Z" fill="black"/>
<path d="M396.5 140C394.02 140 391.548 140.275 389.128 140.821L396.5 173.5L396.5 140Z" fill="#ED2727"/>
<path d="M389.016 140.847C380.356 142.832 372.839 148.175 368.119 155.703L396.5 173.5L389.016 140.847Z" fill="#E3C604"/>
<path d="M368.083 155.759C364.788 161.037 363.028 167.128 363 173.35L396.5 173.5L368.083 155.759Z" fill="#03B909"/>
<path d="M363 173.5C363 180.126 364.965 186.603 368.646 192.112C372.327 197.621 377.559 201.914 383.68 204.45C389.801 206.986 396.537 207.649 403.036 206.356C409.534 205.064 415.503 201.873 420.188 197.188C424.873 192.503 428.064 186.534 429.356 180.036C430.649 173.537 429.985 166.801 427.45 160.68C424.914 154.559 420.621 149.327 415.112 145.646C409.603 141.965 403.126 140 396.5 140L396.5 173.5H363Z" fill="#082A81"/>
<line x1="290.5" y1="118.997" x2="291.5" y2="280.997" stroke="#D2D2D2"/>
<line x1="291" y1="230.5" x2="448" y2="230.5" stroke="#D2D2D2"/>
</svg>
